<svg width="40" height="40" viewBox="0 0 40 40" fill="none" xmlns="http://www.w3.org/2000/svg">
<rect width="40" height="40" rx="20" fill="#F8F8F8"/>
<path d="M23.5377 13.7654C23.6054 13.6938 23.6583 13.6096 23.6934 13.5176C23.7285 13.4255 23.7451 13.3275 23.7423 13.229C23.7395 13.1305 23.7174 13.0335 23.6771 12.9436C23.6369 12.8537 23.5793 12.7726 23.5077 12.7049C23.4361 12.6373 23.3519 12.5844 23.2598 12.5493C23.1678 12.5142 23.0697 12.4975 22.9712 12.5003C22.8728 12.5031 22.7758 12.5252 22.6859 12.5655C22.596 12.6058 22.5149 12.6633 22.4472 12.7349L16.0722 19.4849C15.9405 19.6242 15.8672 19.8086 15.8672 20.0002C15.8672 20.1918 15.9405 20.3762 16.0722 20.5154L22.4472 27.2662C22.5144 27.3394 22.5955 27.3984 22.6857 27.44C22.776 27.4816 22.8736 27.5048 22.9729 27.5083C23.0722 27.5119 23.1712 27.4956 23.2642 27.4606C23.3571 27.4255 23.4422 27.3723 23.5144 27.3041C23.5867 27.2359 23.6446 27.154 23.685 27.0632C23.7253 26.9724 23.7472 26.8745 23.7493 26.7751C23.7515 26.6758 23.7339 26.577 23.6976 26.4845C23.6612 26.3921 23.6069 26.3077 23.5377 26.2364L17.6487 20.0002L23.5377 13.7654Z" fill="#8E8F95"/>
<path d="M23.5377 13.7654C23.6054 13.6938 23.6583 13.6096 23.6934 13.5176C23.7285 13.4255 23.7451 13.3275 23.7423 13.229C23.7395 13.1305 23.7174 13.0335 23.6771 12.9436C23.6369 12.8537 23.5793 12.7726 23.5077 12.7049C23.4361 12.6373 23.3519 12.5844 23.2598 12.5493C23.1678 12.5142 23.0697 12.4975 22.9712 12.5003C22.8728 12.5031 22.7758 12.5252 22.6859 12.5655C22.596 12.6058 22.5149 12.6633 22.4472 12.7349L16.0722 19.4849C15.9405 19.6242 15.8672 19.8086 15.8672 20.0002C15.8672 20.1918 15.9405 20.3762 16.0722 20.5154L22.4472 27.2662C22.5144 27.3394 22.5955 27.3984 22.6857 27.44C22.776 27.4816 22.8736 27.5048 22.9729 27.5083C23.0722 27.5119 23.1712 27.4956 23.2642 27.4606C23.3571 27.4255 23.4422 27.3723 23.5144 27.3041C23.5867 27.2359 23.6446 27.154 23.685 27.0632C23.7253 26.9724 23.7472 26.8745 23.7493 26.7751C23.7515 26.6758 23.7339 26.577 23.6976 26.4845C23.6612 26.3921 23.6069 26.3077 23.5377 26.2364L17.6487 20.0002L23.5377 13.7654Z" fill="black" fill-opacity="0.2"/>
</svg>
