<svg width="8" height="44" viewBox="0 0 8 44" fill="none" xmlns="http://www.w3.org/2000/svg">
<path d="M4 0.333333C2.52724 0.333333 1.33333 1.52724 1.33333 3C1.33333 4.47276 2.52724 5.66667 4 5.66667C5.47276 5.66667 6.66667 4.47276 6.66667 3C6.66667 1.52724 5.47276 0.333333 4 0.333333ZM3.64644 43.3536C3.84171 43.5488 4.15829 43.5488 4.35355 43.3536L7.53553 40.1716C7.73079 39.9763 7.73079 39.6597 7.53553 39.4645C7.34027 39.2692 7.02369 39.2692 6.82843 39.4645L4 42.2929L1.17157 39.4645C0.976309 39.2692 0.659727 39.2692 0.464465 39.4645C0.269202 39.6597 0.269202 39.9763 0.464464 40.1716L3.64644 43.3536ZM3.5 4.42857C3.5 4.70471 3.72386 4.92857 4 4.92857C4.27614 4.92857 4.5 4.70471 4.5 4.42857L3.5 4.42857ZM4.5 7.28571C4.5 7.00957 4.27614 6.78571 4 6.78571C3.72386 6.78571 3.5 7.00957 3.5 7.28571L4.5 7.28571ZM3.5 10.1429C3.5 10.419 3.72386 10.6429 4 10.6429C4.27614 10.6429 4.5 10.419 4.5 10.1429L3.5 10.1429ZM4.5 13C4.5 12.7239 4.27614 12.5 4 12.5C3.72386 12.5 3.5 12.7239 3.5 13L4.5 13ZM3.5 15.8571C3.5 16.1333 3.72386 16.3571 4 16.3571C4.27614 16.3571 4.5 16.1333 4.5 15.8571L3.5 15.8571ZM4.5 18.7143C4.5 18.4381 4.27614 18.2143 4 18.2143C3.72386 18.2143 3.5 18.4381 3.5 18.7143L4.5 18.7143ZM3.5 21.5714C3.5 21.8476 3.72386 22.0714 4 22.0714C4.27614 22.0714 4.5 21.8476 4.5 21.5714L3.5 21.5714ZM4.5 24.4286C4.5 24.1524 4.27614 23.9286 4 23.9286C3.72386 23.9286 3.5 24.1524 3.5 24.4286L4.5 24.4286ZM3.5 27.2857C3.5 27.5619 3.72386 27.7857 4 27.7857C4.27614 27.7857 4.5 27.5619 4.5 27.2857L3.5 27.2857ZM4.5 30.1429C4.5 29.8667 4.27614 29.6429 4 29.6429C3.72386 29.6429 3.5 29.8667 3.5 30.1429L4.5 30.1429ZM3.5 33C3.5 33.2761 3.72386 33.5 4 33.5C4.27614 33.5 4.5 33.2761 4.5 33L3.5 33ZM4.5 35.8571C4.5 35.581 4.27614 35.3571 4 35.3571C3.72386 35.3571 3.5 35.581 3.5 35.8571L4.5 35.8571ZM3.5 38.7143C3.5 38.9904 3.72386 39.2143 4 39.2143C4.27614 39.2143 4.5 38.9904 4.5 38.7143L3.5 38.7143ZM4.5 41.5714C4.5 41.2953 4.27614 41.0714 4 41.0714C3.72386 41.0714 3.5 41.2953 3.5 41.5714L4.5 41.5714ZM3.5 3L3.5 4.42857L4.5 4.42857L4.5 3L3.5 3ZM3.5 7.28571L3.5 10.1429L4.5 10.1429L4.5 7.28571L3.5 7.28571ZM3.5 13L3.5 15.8571L4.5 15.8571L4.5 13L3.5 13ZM3.5 18.7143L3.5 21.5714L4.5 21.5714L4.5 18.7143L3.5 18.7143ZM3.5 24.4286L3.5 27.2857L4.5 27.2857L4.5 24.4286L3.5 24.4286ZM3.5 30.1429L3.5 33L4.5 33L4.5 30.1429L3.5 30.1429ZM3.5 35.8571L3.5 38.7143L4.5 38.7143L4.5 35.8571L3.5 35.8571ZM3.5 41.5714L3.5 43L4.5 43L4.5 41.5714L3.5 41.5714Z" fill="#4DD5B8"/>
</svg>
