<svg width="18" height="19" viewBox="0 0 18 19" fill="none" xmlns="http://www.w3.org/2000/svg">
<path d="M11.2971 12.2444C11.9395 11.7492 12.491 11.1462 12.9271 10.4624C13.4832 10.2644 15.6313 9.2337 15.7495 5.12898C15.7524 5.03937 15.737 4.95012 15.7045 4.8666C15.6719 4.78307 15.6227 4.70701 15.56 4.64298C15.4967 4.57815 15.4211 4.52658 15.3377 4.49129C15.2542 4.456 15.1646 4.43768 15.074 4.43742H13.724V3.4251C13.7237 3.15665 13.6169 2.89929 13.4271 2.70947C13.2373 2.51965 12.9799 2.41288 12.7115 2.4126H5.28739C5.01895 2.41288 4.76158 2.51965 4.57176 2.70947C4.38195 2.89929 4.27518 3.15665 4.27489 3.4251V4.4376H2.92489C2.83429 4.43786 2.74465 4.45618 2.66121 4.49147C2.57776 4.52676 2.50219 4.57833 2.43889 4.64316C2.37615 4.70719 2.327 4.78325 2.29443 4.86678C2.26186 4.9503 2.24652 5.03955 2.24935 5.12916C2.36761 9.23316 4.51573 10.2642 5.07175 10.4626C5.50788 11.1464 6.05944 11.7494 6.70183 12.2446C6.98947 12.4708 7.30894 12.6534 7.64989 12.7864V13.5501C7.6497 13.7291 7.57853 13.9006 7.45198 14.0272C7.32544 14.1537 7.15386 14.2249 6.97489 14.2251H5.96239C5.515 14.2256 5.08609 14.4036 4.76973 14.7199C4.45338 15.0363 4.27542 15.4652 4.27489 15.9126C4.27509 16.0916 4.34626 16.2631 4.47281 16.3897C4.59935 16.5162 4.77093 16.5874 4.94989 16.5876H13.0499C13.2289 16.5874 13.4004 16.5162 13.527 16.3897C13.6535 16.2631 13.7247 16.0916 13.7249 15.9126C13.7244 15.4652 13.5464 15.0363 13.2301 14.7199C12.9137 14.4036 12.4848 14.2256 12.0374 14.2251H11.0249C10.8459 14.2249 10.6744 14.1537 10.5478 14.0272C10.4213 13.9006 10.3501 13.7291 10.3499 13.5501V12.7864C10.6905 12.6533 11.0097 12.4706 11.2971 12.2444ZM15.0749 5.10918C15.0029 7.6272 14.1236 8.83248 13.4407 9.3921C13.6286 8.85852 13.7247 8.29694 13.7249 7.73124V5.11188L15.0749 5.10918ZM2.92489 5.1126H4.27489V7.73124C4.27508 8.29693 4.37112 8.8585 4.55893 9.3921C3.87565 8.83212 2.99779 7.6281 2.92561 5.1126H2.92489ZM4.94989 7.73124V3.4251C4.94999 3.33562 4.98558 3.24983 5.04885 3.18655C5.11212 3.12328 5.19791 3.08769 5.28739 3.0876H12.7124C12.8019 3.08769 12.8877 3.12328 12.9509 3.18655C13.0142 3.24983 13.0498 3.33562 13.0499 3.4251V7.73124C13.0499 9.23622 12.3193 10.5765 10.8786 11.7148C10.3443 12.1391 9.68215 12.3701 8.99989 12.3701C8.31764 12.3701 7.65548 12.1391 7.12123 11.7148C5.68051 10.5765 4.94989 9.23622 4.94989 7.73124ZM11.0249 14.9001H12.0374C12.3058 14.9004 12.5632 15.0071 12.753 15.197C12.9428 15.3868 13.0496 15.6442 13.0499 15.9126H4.94989C4.95018 15.6442 5.05695 15.3868 5.24676 15.197C5.43658 15.0071 5.69395 14.9004 5.96239 14.9001H6.97489C7.33281 14.8997 7.67593 14.7573 7.92902 14.5042C8.1821 14.2511 8.32447 13.908 8.32489 13.5501V12.9813C8.77079 13.0672 9.229 13.0672 9.67489 12.9813V13.5501C9.67532 13.908 9.81769 14.2511 10.0708 14.5042C10.3239 14.7573 10.667 14.8997 11.0249 14.9001Z" fill="#151B22"/>
<path d="M10.1383 9.38151C10.1746 9.39433 10.2129 9.4009 10.2515 9.40095C10.2966 9.40095 10.3412 9.3919 10.3828 9.37435C10.4243 9.35679 10.4619 9.33109 10.4934 9.29875C10.5248 9.26642 10.5495 9.22811 10.5659 9.18608C10.5822 9.14406 10.59 9.09918 10.5888 9.05409L10.5557 7.84629L11.2924 6.88869C11.3259 6.84524 11.3482 6.79429 11.3575 6.74025C11.3668 6.68621 11.3629 6.63072 11.3459 6.57857C11.329 6.52642 11.2996 6.47918 11.2603 6.44095C11.221 6.40271 11.1729 6.37463 11.1203 6.35913L9.96149 6.01713L9.27749 5.02047C9.24482 4.97767 9.20271 4.94299 9.15444 4.91911C9.10618 4.89523 9.05306 4.88281 8.99921 4.88281C8.94536 4.88281 8.89224 4.89523 8.84398 4.91911C8.79571 4.94299 8.75361 4.97767 8.72093 5.02047L8.03693 6.01713L6.87809 6.35913C6.82549 6.37463 6.77746 6.40271 6.73816 6.44095C6.69885 6.47918 6.66945 6.52642 6.65251 6.57857C6.63556 6.63072 6.63158 6.68621 6.6409 6.74025C6.65022 6.79429 6.67257 6.84524 6.70601 6.88869L7.44275 7.84629L7.40963 9.05409C7.40813 9.10886 7.41998 9.16317 7.44416 9.21233C7.46835 9.2615 7.50413 9.30403 7.54844 9.33627C7.59274 9.3685 7.64422 9.38947 7.69844 9.39735C7.75266 9.40523 7.80798 9.3998 7.85963 9.38151L8.99993 8.97651L10.1383 9.38151ZM8.09993 8.58033L8.12279 7.74477C8.12509 7.66688 8.10042 7.59058 8.05295 7.52877L7.54193 6.86727L8.34365 6.63093C8.41808 6.60902 8.48267 6.5621 8.52653 6.49809L8.99993 5.80851L9.47261 6.49809C9.51647 6.5621 9.58106 6.60902 9.65549 6.63093L10.4579 6.86727L9.94817 7.52967C9.9007 7.59148 9.87603 7.66778 9.87833 7.74567L9.89993 8.58033L9.11243 8.30025C9.0393 8.27434 8.95948 8.27434 8.88635 8.30025L8.09993 8.58033Z" fill="#151B22"/>
</svg>
