<svg width="18" height="19" viewBox="0 0 18 19" fill="none" xmlns="http://www.w3.org/2000/svg">
<path d="M6.29995 10.4C6.53865 10.4 6.76756 10.3051 6.93635 10.1363C7.10513 9.96756 7.19995 9.73865 7.19995 9.49995C7.19995 9.26126 7.10513 9.03234 6.93635 8.86356C6.76756 8.69477 6.53865 8.59995 6.29995 8.59995C6.06126 8.59995 5.83234 8.69477 5.66356 8.86356C5.49477 9.03234 5.39995 9.26126 5.39995 9.49995C5.39995 9.73865 5.49477 9.96756 5.66356 10.1363C5.83234 10.3051 6.06126 10.4 6.29995 10.4ZM7.19995 12.2C7.19995 12.4386 7.10513 12.6676 6.93635 12.8363C6.76756 13.0051 6.53865 13.1 6.29995 13.1C6.06126 13.1 5.83234 13.0051 5.66356 12.8363C5.49477 12.6676 5.39995 12.4386 5.39995 12.2C5.39995 11.9613 5.49477 11.7323 5.66356 11.5636C5.83234 11.3948 6.06126 11.3 6.29995 11.3C6.53865 11.3 6.76756 11.3948 6.93635 11.5636C7.10513 11.7323 7.19995 11.9613 7.19995 12.2ZM8.99995 10.4C9.23865 10.4 9.46756 10.3051 9.63635 10.1363C9.80513 9.96756 9.89995 9.73865 9.89995 9.49995C9.89995 9.26126 9.80513 9.03234 9.63635 8.86356C9.46756 8.69477 9.23865 8.59995 8.99995 8.59995C8.76126 8.59995 8.53234 8.69477 8.36356 8.86356C8.19477 9.03234 8.09995 9.26126 8.09995 9.49995C8.09995 9.73865 8.19477 9.96756 8.36356 10.1363C8.53234 10.3051 8.76126 10.4 8.99995 10.4ZM9.89995 12.2C9.89995 12.4386 9.80513 12.6676 9.63635 12.8363C9.46756 13.0051 9.23865 13.1 8.99995 13.1C8.76126 13.1 8.53234 13.0051 8.36356 12.8363C8.19477 12.6676 8.09995 12.4386 8.09995 12.2C8.09995 11.9613 8.19477 11.7323 8.36356 11.5636C8.53234 11.3948 8.76126 11.3 8.99995 11.3C9.23865 11.3 9.46756 11.3948 9.63635 11.5636C9.80513 11.7323 9.89995 11.9613 9.89995 12.2ZM11.7 10.4C11.9386 10.4 12.1676 10.3051 12.3363 10.1363C12.5051 9.96756 12.6 9.73865 12.6 9.49995C12.6 9.26126 12.5051 9.03234 12.3363 8.86356C12.1676 8.69477 11.9386 8.59995 11.7 8.59995C11.4613 8.59995 11.2323 8.69477 11.0636 8.86356C10.8948 9.03234 10.8 9.26126 10.8 9.49995C10.8 9.73865 10.8948 9.96756 11.0636 10.1363C11.2323 10.3051 11.4613 10.4 11.7 10.4ZM15.3 5.44995C15.3 4.85321 15.0629 4.28092 14.6409 3.85896C14.219 3.437 13.6467 3.19995 13.05 3.19995H4.94995C4.35321 3.19995 3.78092 3.437 3.35896 3.85896C2.937 4.28092 2.69995 4.85321 2.69995 5.44995V13.55C2.69995 14.1467 2.937 14.719 3.35896 15.1409C3.78092 15.5629 4.35321 15.8 4.94995 15.8H13.05C13.6467 15.8 14.219 15.5629 14.6409 15.1409C15.0629 14.719 15.3 14.1467 15.3 13.55V5.44995ZM3.59995 6.79995H14.4V13.55C14.4 13.908 14.2577 14.2514 14.0045 14.5045C13.7514 14.7577 13.408 14.9 13.05 14.9H4.94995C4.59191 14.9 4.24853 14.7577 3.99536 14.5045C3.74218 14.2514 3.59995 13.908 3.59995 13.55V6.79995ZM4.94995 4.09995H13.05C13.408 4.09995 13.7514 4.24218 14.0045 4.49536C14.2577 4.74853 14.4 5.09191 14.4 5.44995V5.89995H3.59995V5.44995C3.59995 5.09191 3.74218 4.74853 3.99536 4.49536C4.24853 4.24218 4.59191 4.09995 4.94995 4.09995Z" fill="#151B22"/>
</svg>
