<svg width="18" height="19" viewBox="0 0 18 19" fill="none" xmlns="http://www.w3.org/2000/svg">
<path d="M9 17C13.1422 17 16.5 13.6422 16.5 9.5C16.5 5.35775 13.1422 2 9 2C4.85775 2 1.5 5.35775 1.5 9.5C1.5 13.6422 4.85775 17 9 17Z" stroke="#151B22" stroke-width="1.5" strokeLinecap="round" strokeLinejoin="round"/>
<path d="M11.625 12.5C11.7245 12.5 11.8198 12.4605 11.8902 12.3902C11.9605 12.3198 12 12.2245 12 12.125C12 12.0255 11.9605 11.9302 11.8902 11.8598C11.8198 11.7895 11.7245 11.75 11.625 11.75C11.5255 11.75 11.4302 11.7895 11.3598 11.8598C11.2895 11.9302 11.25 12.0255 11.25 12.125C11.25 12.2245 11.2895 12.3198 11.3598 12.3902C11.4302 12.4605 11.5255 12.5 11.625 12.5ZM6.375 7.25C6.47446 7.25 6.56984 7.21049 6.64017 7.14017C6.71049 7.06984 6.75 6.97446 6.75 6.875C6.75 6.77554 6.71049 6.68016 6.64017 6.60983C6.56984 6.53951 6.47446 6.5 6.375 6.5C6.27554 6.5 6.18016 6.53951 6.10983 6.60983C6.03951 6.68016 6 6.77554 6 6.875C6 6.97446 6.03951 7.06984 6.10983 7.14017C6.18016 7.21049 6.27554 7.25 6.375 7.25Z" fill="#151B22" stroke="#151B22" stroke-width="1.5" strokeLinecap="round" strokeLinejoin="round"/>
<path d="M12 6.5L6 12.5" stroke="#151B22" stroke-width="1.5" strokeLinecap="round" strokeLinejoin="round"/>
</svg>
